# xmcd
#
# Track frame offsets:
#	150
#	4504
#	14299
#	28964
#	50598
#	64223
#	98732
#	120430
#	133310
#	153841
#	175338
#	308498
# Disc length: 4387 seconds
# Revision: 1
# Processed by: cddbd v1.5.2PL0 Copyright (c) Steve Scherf et al.
#
# Submitted via: libkcddb 0.31
#
DISCID=9411210c
DTITLE=Cardio Coach - Cardio Coach, Vol. 2
DYEAR=0
DGENRE=New Age
TTITLE0=Intro
TTITLE1=Warm Up
TTITLE2=Steady State 1
TTITLE3=Challenge 1
TTITLE4=Steady State 2
TTITLE5=Challenge 2
TTITLE6=Steady State 3
TTITLE7=Challenge 3
TTITLE8=Cool Down
TTITLE9=Notes
TTITLE10=Instrumental
TTITLE11=Instrumental 2
EXTD=YEAR: 0
EXTT0=
EXTT1=
EXTT2=
EXTT3=
EXTT4=
EXTT5=
EXTT6=
EXTT7=
EXTT8=
EXTT9=
EXTT10=
EXTT11=
PLAYORDER=
